<svg xmlns="http://www.w3.org/2000/svg" viewBox="0 0 100 100">
  <!-- Background -->
  <rect width="100" height="100" rx="22" fill="#1A3A6E"/>

  <!-- Sun -->
  <!-- Rays -->
  <g stroke="#FFD600" stroke-width="3.5" stroke-linecap="round">
    <line x1="62" y1="22" x2="62" y2="16"/>
    <line x1="62" y1="46" x2="62" y2="52"/>
    <line x1="50" y1="34" x2="44" y2="34"/>
    <line x1="74" y1="34" x2="80" y2="34"/>
    <line x1="54" y1="26" x2="50" y2="22"/>
    <line x1="70" y1="26" x2="74" y2="22"/>
    <line x1="54" y1="42" x2="50" y2="46"/>
    <line x1="70" y1="42" x2="74" y2="46"/>
  </g>
  <!-- Sun disc -->
  <circle cx="62" cy="34" r="9" fill="#FFD600"/>

  <!-- Cloud -->
  <circle cx="38" cy="58" r="14" fill="white"/>
  <circle cx="52" cy="62" r="11" fill="white"/>
  <circle cx="26" cy="62" r="9"  fill="white"/>
  <rect x="17" y="62" width="46" height="12" rx="0" fill="white"/>

  <!-- Rain drops -->
  <g fill="#90CAF9">
    <ellipse cx="28" cy="82" rx="2.5" ry="4"/>
    <ellipse cx="38" cy="86" rx="2.5" ry="4"/>
    <ellipse cx="48" cy="82" rx="2.5" ry="4"/>
    <ellipse cx="58" cy="86" rx="2.5" ry="4"/>
  </g>
</svg>
